# xmcd
#
# Track frame offsets:
#	150
#	16270
#	32547
#	44347
#	53575
#	68315
#	80072
#	92537
#	105972
#	120755
#	131972
#	143560
#	159480
#	167267
#	175520
#	186775
#	199895
#	208557
#	219940
#	230062
#	241660
#
# Disc length: 3393 seconds
#
# Revision: 0
# Processed by: cddbd v1.5.2PL0 Copyright (c) Steve Scherf et al.
# Submitted via: EZCDAudioConverter 3.0.7.1
#
DISCID=fd0d3f15
DTITLE=Various Artists / Sesame Street: Songs From The Street (Disc 3)
DYEAR=2003
DGENRE=Children
TTITLE0=Steven Tyler / I Love Trash
TTITLE1=Spin Doctors With Zoe, Elmo And Telly / Two Princes
TTITLE2=Melissa Etheridge / Like The Way I Do (Like The Way U Does)
TTITLE3=Bert And Ernie / But I Like You
TTITLE4=Luis And Elmo / Tu Me Gustas (I Like You)
TTITLE5=Gloria Estefan / Mambo I, I, I
TTITLE6=Grover / Monster In The Mirror
TTITLE7=Hootie & The Blowfish With Elmo And The Kids / Hold My Hand
TTITLE8=Trisha Yearwood And Herry Monster / I'm Talkin' Love
TTITLE9=A Boy And The Anything Muppets / We Are All Earthlings
TTITLE10=Celine Dion With Herry Monster, Elmo And Big Bird / Happy To Meet You
TTITLE11=R.E.M. And Muppet Rocker / Shiny Happy People (Furry Happy Monsters)
TTITLE12='n Sync / Believe In Yourself
TTITLE13=Destiny's Child With Elmo, Grover And Zoe / A New Way To Walk
TTITLE14=Elmo, Big Bird And Snuffleupagus / Elmo's Song
TTITLE15=Goo Goo Dolls And Elmo / Slide (Pride)
TTITLE16=Dixie Chicks / Sing
TTITLE17=The Fugees / Just Happy To Be Me
TTITLE18=Ernie And Hoots The Owl / Put Down The Duckie
TTITLE19=Keb' Mo' And The Kids / Everybody Be Yo'self
TTITLE20=Ursula 1000 / Sesame Street Theme Remix
EXTD=
EXTT0=
EXTT1=
EXTT2=
EXTT3=
EXTT4=
EXTT5=
EXTT6=
EXTT7=
EXTT8=
EXTT9=
EXTT10=
EXTT11=
EXTT12=
EXTT13=
EXTT14=
EXTT15=
EXTT16=
EXTT17=
EXTT18=
EXTT19=
EXTT20=
PLAYORDER=
.
